<?xml version="1.0" encoding="utf-8"?>
<!-- Generator: Adobe Illustrator 16.0.0, SVG Export Plug-In . SVG Version: 6.00 Build 0)  -->
<!DOCTYPE svg PUBLIC "-//W3C//DTD SVG 1.1//EN" "http://www.w3.org/Graphics/SVG/1.1/DTD/svg11.dtd">
<svg version="1.1" id="Layer_1" xmlns="http://www.w3.org/2000/svg" xmlns:xlink="http://www.w3.org/1999/xlink" x="0px" y="0px"
	 width="190px" height="60px" viewBox="0 0 180 60" enable-background="new 0 0 180 60" xml:space="preserve">
<g>
	<path fill="#ED1C24" d="M14.351,22.655v14.076c0,1.635,0.609,2.392,2.495,2.392h5.455v-4.42h-3.11v-3.828h2.455v-2.261h-2.451
		v-3.831h3.106v-4.419h-5.455C14.884,20.364,14.351,21.467,14.351,22.655z"/>
	<rect x="23.651" y="18.019" fill="#ED1C24" width="4.845" height="23.45"/>
	<path fill="#ED1C24" d="M35.458,20.364h-5.609v4.419h3.104v9.92h-3.104v4.42h5.609c1.236,0,2.341-1.022,2.341-2.392V22.655
		C37.799,20.977,36.573,20.364,35.458,20.364z"/>
	<g>
		<path fill="#ED1C24" d="M26.075,6.669C13.331,6.669,3,17.001,3,29.743c0,12.743,10.331,23.074,23.075,23.074
			s23.073-10.331,23.073-23.074C49.148,17.001,38.819,6.669,26.075,6.669z M26.075,48.535c-10.379,0-18.793-8.412-18.793-18.792
			c0-10.379,8.414-18.792,18.793-18.792s18.793,8.413,18.793,18.792C44.868,40.123,36.454,48.535,26.075,48.535z"/>
	</g>
</g>
<g>
	<path fill="#A97C50" d="M151.104,12.916h-0.313h-3.404v-1.617h3.785c1.625,0,1.914-0.791,1.914-1.721h-2.264
		c0,0.453-0.422,0.666-0.93,0.666H139.4v1.055h5.715v1.617h-5.523v1.808v5.251h2.279v-6.007h0.959h2.285v7.146h2.271v-7.146h2.375
		h0.852v4.009v0.867h-1.406v1.131h3.688v-1.869v-3.771C152.895,13.558,152.242,12.916,151.104,12.916z"/>
	<path fill="#A97C50" d="M69.064,11.155c-0.018-0.003-0.081-0.014-0.253-0.014h-4.14V9.6h-2.303v1.542H56.53v7.462h5.839v2.51h2.303
		v-2.51h5.878v-2.056v-3.883c0-0.021,0.002-0.043,0-0.065C70.515,11.859,69.881,11.256,69.064,11.155z M62.369,17.55h-3.536v-5.339
		h3.536V17.55z M68.253,17.55h-3.581v-5.343h3.581V17.55z"/>
	<path fill="#A97C50" d="M83.558,18.033c0-0.405-0.328-0.732-0.799-0.732H81.7v0.729h-0.813v-2.344h2.502v-1.053h-2.502v-1.97h2.67
		v-1.054h-7.245v1.054h2.727v1.97h-2.526v1.053h2.526v2.344h-2.727v1.056h7.245V18.033z M86.814,11.104
		c0-0.021-0.004-0.046-0.005-0.066c-0.035-0.743-0.67-1.345-1.484-1.443c-0.018-0.003-0.082-0.017-0.256-0.017H73.058V21.08h13.757
		v-9.654c0-0.005,0-0.008,0-0.012V11.104z M84.534,20.026h-9.195v-9.394h9.195V20.026z"/>
	<path fill="#A97C50" d="M103.342,11.071c0-0.735-0.684-1.442-1.49-1.442c-0.018-0.004-0.084-0.017-0.256-0.017h-5.113v11.501h2.279
		V10.668h2.299v8.102H99.59v1.055h3.752v-8.365C103.342,11.459,103.342,11.093,103.342,11.071z M90.976,9.581
		c-0.109,0.003-0.155,0.012-0.17,0.015c-0.815,0.1-1.455,0.702-1.49,1.444c-0.002,0.021,0,0.043,0,0.064v8.72h6.382V18.77h-4.101
		v-3.666h4.009v-1.055h-4.009v-3.415h4.101V9.581h-4.72H90.976z"/>
	<path fill="#A97C50" d="M125.422,9.578h-2.688v1.101h2.688V9.578z M127.008,14.796v4.447h8.996v-3.031
		c0-0.786-0.715-1.416-1.672-1.416H127.008z M133.746,18.195h-4.488v-2.326h4.488V18.195z M126.805,20.056
		c-0.789,0-1.182-0.314-1.182-0.943c0,0,0.004-5.178,0-5.198c0-0.729-0.688-1.434-1.49-1.434c-0.018-0.002-1.398,0-1.398,0v1.063
		h1.045v4.849c0,0.618,0.09,1.073-0.883,1.669l0.514,0.967c0.463-0.105,0.887-0.312,1.082-0.576
		c0.467,0.514,1.254,0.658,2.045,0.658h10.361v-1.054H126.805z M128.57,11.296h2.053v1.819h-4.463v1.057h10.393v-1.057h-3.648
		v-1.819h3.219v-1.055h-3.219V9.578h-2.281v0.663h-1.637l0.146-0.663h-2.076c0,0-0.283,0.962-0.412,1.201
		c-0.109,0.21-0.262,0.38-0.707,0.51l0,0l0.684,1.213C127.635,12.351,128.303,11.789,128.57,11.296z"/>
	<path fill="#A97C50" d="M106.063,14.239h1.113v2.163h-1.113v1.054h1.113c0,0,0.004,2.176,0.006,2.198
		c0,0.743,0.596,1.459,1.486,1.459c0.016,0.002,0.08,0,0.248,0h2.02v-1.169h-1.623v-2.488h1.768v-1.054h-1.768v-2.163h1.768v-1.057
		h-5.018V14.239z M116.768,9.585h-1.908V17.2h1.908V9.585z M113.891,13.959l0.309-3.627h-1.865l-0.164,2.981
		c0,0.688-0.279,1.627-0.805,1.882l0.666,1.188C113.441,15.929,113.777,14.895,113.891,13.959z M119.566,16.383l0.666-1.188
		c-0.523-0.255-0.801-1.193-0.801-1.882l-0.166-2.981h-1.867l0.309,3.627C117.82,14.895,118.158,15.929,119.566,16.383z
		 M116.02,18.629c-1.482,1.31-3.223,1.315-4.434,1.315l0.723,1.168c1.686-0.01,3.859-0.128,5.053-1.322l2.871-2.967h-2.469
		L116.02,18.629z M109.119,9.585h-2.078c0,0-0.363,1.166-0.492,1.406c-0.109,0.209-0.262,0.379-0.707,0.51l0.682,1.212
		c1.014-0.152,1.682-0.754,1.951-1.245h2.605v-1.136h-2.191L109.119,9.585z"/>
</g>
<line fill="none" x1="56.53" y1="52.95" x2="56.53" y2="6.814"/>
<line fill="none" x1="56.53" y1="49.839" x2="175.262" y2="49.839"/>
<text transform="matrix(1 0 0 1 56.6113 49.6875)" font-family="'FrutigerLT-Roman'" font-size="6.1426">CHENGDU BANKNOTE PRINTING CO., LTD.</text>
<text transform="matrix(1 0 0 1 56.6108 39.123)" font-family="'HYb1gj-GBpc-EUC-H'" font-size="15.145">成都印钞有限公司</text>
</svg>
